<?xml version="1.0" encoding="UTF-8"?>
<svg id="Layer_1" data-name="Layer 1" xmlns="http://www.w3.org/2000/svg" viewBox="0 0 1980.46 1985">
  <defs>
    <style>
      .cls-1 {
        fill: #9ae59d;
      }

      .cls-2 {
        fill: #6fd6a3;
      }

      .cls-3 {
        fill: #ddf5fb;
      }

      .cls-4 {
        fill: #3ec2a4;
      }
    </style>
  </defs>
  <path class="cls-1" d="M1496.12,146.61c78.78,158.61,128.4,331.43,123.47,510.32-186.43-356.82-655.79-477.49-998.46-270-462.53,280.08-440.7,970.34,35.41,1224.79-8.16,12.75-32.28,9.66-45.51,8.69-165.75-12.15-320.58-48.3-464.83-132.16-64.44-110.11-126.46-257.93-139.93-386.86-5.64-53.99-5.48-168.1,0-222.24C78.13,169.3,883.93-213.67,1496.12,146.61Z"/>
  <path class="cls-2" d="M146.22,1488.26c144.25,83.85,299.08,120,464.83,132.16,13.22.97,37.34,4.06,45.51-8.69,616.35,329.4,1282.43-343.51,963.04-954.79,4.94-178.89-44.68-351.71-123.47-510.32,492.26,289.69,633.46,940.33,303.03,1410.09-413.47,587.82-1290.56,550.82-1652.94-68.44Z"/>
  <path class="cls-4" d="M1619.59,656.93c319.38,611.29-346.69,1284.19-963.04,954.79-476.11-254.45-497.95-944.71-35.41-1224.79,342.66-207.5,812.02-86.83,998.46,270ZM1230.49,699.98c-16.8,3.46-33.87,16.35-47.34,26.73-50.7,39.04-267.09,284.56-293.67,291.51-27.09,7.09-119.84-118.71-165.14-136.89-116.27-46.67-228.48,74.11-165.35,181.81,11.44,19.51,240.99,249.31,259.16,259.41,44.71,24.86,89.43,19.88,132.31-5.42l432.07-432.2c48.91-111.48-31.08-209.87-152.04-184.94Z"/>
  <path class="cls-3" d="M1230.49,699.98c120.96-24.93,200.95,73.47,152.04,184.94l-432.07,432.2c-42.88,25.3-87.6,30.28-132.31,5.42-18.17-10.1-247.72-239.9-259.16-259.41-63.14-107.69,49.08-228.48,165.35-181.81,45.29,18.18,138.05,143.98,165.14,136.89,26.58-6.96,242.96-252.48,293.67-291.51,13.47-10.37,30.54-23.26,47.34-26.73Z"/>
</svg>