<?xml version="1.0" encoding="UTF-8"?>
<svg id="Layer_1" data-name="Layer 1" xmlns="http://www.w3.org/2000/svg" xmlns:xlink="http://www.w3.org/1999/xlink" viewBox="0 0 2000 2000">
  <defs>
    <style>
      .cls-1 {
        fill: url(#linear-gradient-2);
      }

      .cls-2 {
        fill: url(#linear-gradient-4);
      }

      .cls-3 {
        fill: url(#linear-gradient-3);
      }

      .cls-4 {
        fill: url(#linear-gradient-5);
      }

      .cls-5 {
        fill: url(#linear-gradient-8);
      }

      .cls-6 {
        fill: url(#linear-gradient-7);
      }

      .cls-7 {
        fill: url(#linear-gradient-9);
      }

      .cls-8 {
        fill: url(#linear-gradient-6);
      }

      .cls-9 {
        fill: url(#linear-gradient);
      }
    </style>
    <linearGradient id="linear-gradient" x1="284.26" y1="193.8" x2="1761.45" y2="1857.69" gradientUnits="userSpaceOnUse">
      <stop offset="0" stop-color="#ffca4f"/>
      <stop offset="1" stop-color="#f7ae30"/>
    </linearGradient>
    <linearGradient id="linear-gradient-2" x1="333.57" y1="322.94" x2="800.67" y2="797.5" gradientUnits="userSpaceOnUse">
      <stop offset="0" stop-color="#ffd980"/>
      <stop offset="1" stop-color="#ffca4f" stop-opacity="0"/>
    </linearGradient>
    <linearGradient id="linear-gradient-3" x1="595.49" y1="557.22" x2="837.53" y2="787.74" gradientUnits="userSpaceOnUse">
      <stop offset="0" stop-color="#f7ae30"/>
      <stop offset="1" stop-color="#ffca4f"/>
    </linearGradient>
    <linearGradient id="linear-gradient-4" x1="1164.66" y1="551.52" x2="1410.56" y2="793.57" xlink:href="#linear-gradient-3"/>
    <linearGradient id="linear-gradient-5" x1="1008.67" y1="1008.55" x2="1685.4" y2="1674.01" gradientUnits="userSpaceOnUse">
      <stop offset="0" stop-color="#ffca4f" stop-opacity="0"/>
      <stop offset="1" stop-color="#f4901f"/>
    </linearGradient>
    <linearGradient id="linear-gradient-6" x1="978.73" y1="1213.66" x2="1064.76" y2="1504.7" xlink:href="#linear-gradient-3"/>
    <linearGradient id="linear-gradient-7" x1="629.43" y1="589.55" x2="802.41" y2="754.29" gradientUnits="userSpaceOnUse">
      <stop offset="0" stop-color="#4a4a4a"/>
      <stop offset="1" stop-color="#323232"/>
    </linearGradient>
    <linearGradient id="linear-gradient-8" x1="1199.16" y1="585.47" x2="1374.89" y2="758.45" xlink:href="#linear-gradient-7"/>
    <linearGradient id="linear-gradient-9" x1="1000" y1="1067.73" x2="1000" y2="1459.52" xlink:href="#linear-gradient-7"/>
  </defs>
  <path class="cls-9" d="M1000,1966.49c-532.92,0-966.49-433.56-966.49-966.49S467.08,33.51,1000,33.51s966.49,433.56,966.49,966.49-433.56,966.49-966.49,966.49Z"/>
  <path class="cls-1" d="M560.69,1439.31c0-484.47,394.16-878.62,878.62-878.62,128.69,0,250.63,28.49,360.89,78.43C1662.16,334.32,1355.77,121.38,1000,121.38c-484.47,0-878.62,394.16-878.62,878.62,0,355.77,212.94,662.16,517.74,800.2-49.93-110.25-78.43-232.19-78.43-360.89Z"/>
  <path class="cls-3" d="M714.45,824.28c-84.77,0-153.76-68.99-153.76-153.76s68.99-153.76,153.76-153.76,153.76,68.99,153.76,153.76-68.99,153.76-153.76,153.76Z"/>
  <path class="cls-2" d="M1285.55,824.28c-84.77,0-153.76-68.99-153.76-153.76s68.99-153.76,153.76-153.76,153.76,68.99,153.76,153.76-68.99,153.76-153.76,153.76Z"/>
  <path class="cls-4" d="M316.91,1683.09c175.01,175.01,416.63,283.4,683.09,283.4,532.92,0,966.49-433.56,966.49-966.49,0-266.46-108.39-508.08-283.4-683.09L316.91,1683.09Z"/>
  <path class="cls-8" d="M604.58,1483.26c-39.3,0-74.09-26.47-84.64-64.37-12.91-46.72,14.5-95.24,61.22-108.18l790.72-219.63c7.68-2.15,15.62-3.22,23.51-3.22,39.3,0,74.09,26.45,84.64,64.31,12.96,46.76-14.46,95.28-61.18,108.22l-790.72,219.63c-7.72,2.15-15.66,3.24-23.55,3.24Z"/>
  <circle class="cls-6" cx="714.45" cy="670.52" r="109.83"/>
  <circle class="cls-5" cx="1285.55" cy="670.52" r="109.83"/>
  <path class="cls-7" d="M604.58,1439.33c-19.22,0-36.9-12.74-42.3-32.2-6.48-23.38,7.21-47.6,30.59-54.08l790.76-219.66c23.38-6.48,47.58,7.19,54.1,30.57,6.48,23.38-7.21,47.6-30.59,54.08l-790.76,219.66c-3.95,1.09-7.89,1.63-11.8,1.63Z"/>
</svg>