<?xml version="1.0" encoding="UTF-8"?>
<svg id="Layer_1" data-name="Layer 1" xmlns="http://www.w3.org/2000/svg" viewBox="0 0 2000 2000">
  <defs>
    <style>
      .cls-1 {
        fill: #f15c5c;
      }

      .cls-2 {
        fill: #e44b4b;
      }

      .cls-3 {
        fill: #d8dbe4;
      }

      .cls-4 {
        fill: #f5b493;
      }

      .cls-5 {
        fill: #d7dbe4;
      }

      .cls-6 {
        fill: #eea379;
      }

      .cls-7 {
        fill: #01a9ef;
      }

      .cls-8 {
        fill: #fec751;
      }

      .cls-9 {
        fill: #e3e9f7;
      }

      .cls-10 {
        fill: #e1966f;
      }

      .cls-11 {
        fill: #fdb645;
      }

      .cls-12 {
        fill: #fdb646;
      }

      .cls-13 {
        fill: #069ada;
      }

      .cls-14 {
        fill: #fec852;
      }

      .cls-15 {
        fill: #53586d;
      }

      .cls-16 {
        fill: #52586d;
      }

      .cls-17 {
        fill: #e4956e;
      }

      .cls-18 {
        fill: #5e6377;
      }

      .cls-19 {
        fill: #f6b493;
      }

      .cls-20 {
        fill: #e3966f;
      }

      .cls-21 {
        fill: #efa379;
      }

      .cls-22 {
        fill: #efa177;
      }

      .cls-23 {
        fill: #e4966e;
      }

      .cls-24 {
        fill: #e4a47e;
      }
    </style>
  </defs>
  <path class="cls-7" d="M1930.13,1372.37v101.68c-14.69,79.38-36.18,151.38-79.82,219.79-15.78,24.73-31.81,42.32-50.92,63.48-63.47-52.14-153.13-70.39-228.79-101.68-7.67-3.17-49.12-21.07-51.13-24.21l-3.34-70.21c36.05-35.21,64.01-73.1,69-127.11,18.19-.35,37.55-7.25,51.91-18.11,3.22-2.43,2.17-6.91,2.56-7.31.37-.38,5.14.59,7.32-2.54,15.53-22.33,17.24-57.11-7.32-73.72,0-1.21,0-2.42,0-3.63-.05-66.54,4.49-126.66-29.76-186.32-28.92-50.38-87.1-93.19-144.56-104.21-108.71-20.84-225.74,49.73-249.5,159.05-9.33,42.96-2.81,87.77-4.71,131.47-50.14,43.24-4.66,104.26,50.84,105.32,8.9,48.88,29.17,98.78,72.63,127.11l-1.76,69.06c-2.25,4.5-44.14,21.79-52.72,25.36-43.98,18.34-90.33,32.47-134.37,50.84h-7.26c-20.79-40.81-43.33-77.73-58.17-121.6-88.47-261.49,49.98-548.37,309.58-638.39,22.47-7.79,67.84-22.28,89.96-24.44,14.97-1.46,40.44,4.43,55.83,7.73,177.59,38.05,327.08,179.75,375.3,354.65l19.19,87.94Z"/>
  <path class="cls-5" d="M1145.7,1706.47c67.9,112.96,191.19,183.86,318.44,210.14,6.67,1.38,14.17-3.26,12.03,7.76-8.78,1.03-18.56-.96-27.53-.15l-8.79,3.78h-21.79c-149.28-8.42-264.11-61.74-363.16-170.68,20.08-27.66,55.46-34.55,83.53-50.84h7.26Z"/>
  <path class="cls-1" d="M945.96,911.15c-64.7-53.19-152.36-69.94-228.79-101.68-58.75-24.4-57.9-26.22-54.47-94.42,40.33-25.44,65.92-80.77,69-127.11,24.48.41,38.13-5.51,54.47-21.79,24.24-24.14,27.78-56.89,0-79.89,0-1.21,0-2.42,0-3.63.01-65.01,6.75-123.66-26.14-182.68-30.56-54.84-80.07-90.17-140.92-104.21-110.08-25.41-221.56,38.79-253.17,148.12-13.05,45.12-7.03,92.41-8.3,138.78-46.34,39.26-.71,111.55,54.47,105.32,5.71,39.13,15.71,74.09,43.41,103.67,2.92,3.12,27.51,26.05,29.22,27.07-1.15,22.62,3.52,46.38-4.57,68.06-13.43,7.94-28.32,11.95-42.87,17.24-5.4,1.96-11.65.26-10.66,9.13-10.22-2.14-112.3,39.69-130.74,47.21-1.77.72-5.5-.72-7.26,0-160.4-239.46-90.88-565.06,155.04-714.73,58.49-35.6,122.99-56.21,189.96-69.7,407.32,48.69,586.41,531.81,312.32,835.27Z"/>
  <path class="cls-2" d="M633.65,75.89c-66.97,13.49-131.47,34.1-189.96,69.7-245.92,149.67-315.44,475.26-155.04,714.73-31.01,12.72-62.84,27.28-87.16,50.84C-109.03,562.34,173.26,20.86,633.65,75.89Z"/>
  <path class="cls-13" d="M1479.81,922.05c-22.12,2.15-67.48,16.64-89.96,24.44-259.6,90.02-398.05,376.9-309.58,638.39,14.84,43.86,37.37,80.79,58.17,121.6-28.06,16.29-63.44,23.18-83.53,50.84-194.98-214.45-174.2-546.29,56.39-729.85,106.95-85.14,213.48-110.53,348.58-109.11,6.13.06,16.14-2.32,19.92,3.69Z"/>
  <path class="cls-9" d="M945.96,911.15c-86.58,95.85-190.72,154.13-323.21,167.05,2.14-11.01-5.36-6.39-12.03-7.76-113.47-23.27-209.68-77.34-285.86-164.65-10.75-12.33-26.9-29.21-28.96-45.49,18.44-7.52,120.51-49.35,130.74-47.21,51.68,47.72,84.6,113.97,167.05,98.05,53.51-10.33,89.16-63.43,123.47-101.68,76.43,31.75,164.09,48.5,228.79,101.68Z"/>
  <path class="cls-14" d="M412.12,1198.05c17.33,11.94,73.42,39.98,78.45,58,7.98,27.63-89.54,48.77-89.46,56.56,92.57,190.79,278.62,318.75,485.73,356.75,17.44,10.15,16.93,38.12-1.27,47.52-18.01,9.3-70.68-6.3-92.13-12.22-188.53-52.01-359.5-191.76-443.06-368.6,12.74-5.82,27.64-16.4,41.73-21.83l20.01-116.17Z"/>
  <path class="cls-14" d="M1599.65,653.31c-15.06,6.22-35.35,14.87-50.84,21.79-84.98-128.06-198.87-221.51-343.03-276.16-25.72-9.75-106.48-17.66-77.86-63.02,14.29-22.66,83.95,5.19,105.91,13.19,152.08,55.41,282.32,166.63,365.82,304.2Z"/>
  <path class="cls-3" d="M295.91,860.31c2.05,16.28,18.2,33.17,28.96,45.49,76.18,87.31,172.38,141.38,285.86,164.65,6.67,1.37,14.17-3.25,12.03,7.76-163.6,15.95-314.49-47.11-421.26-167.05,24.32-23.56,56.15-38.12,87.16-50.84,1.76-.72,5.49.72,7.26,0Z"/>
  <path class="cls-12" d="M1686.81,675.1c-16.76,7.91-81.43,27.48-90.82,38.08-23.87,26.97,54.68,63.34,72.66,74.5-4.38,23.29.83,69.36-34.31,61.59l-163.88-108.52c-8.33-8.24-7.31-20.5,1.89-27.72,25.2-12.32,50.97-26.56,76.45-37.93,15.49-6.92,35.78-15.57,50.84-21.79,14.31-5.91,49.05-21.17,61.51-23.8,7.75-1.63,15.32-3.06,23.23-1.04,19.93,13.56,4.61,32.5,2.42,46.62Z"/>
  <path class="cls-11" d="M412.12,1198.05l-20.01,116.17c-14.09,5.42-28.99,16.01-41.73,21.83-7.68,3.51-60.39,25.15-63.82,25.39-7.8.53-20.31-5.72-22.65-13.39l35.39-205.61c6.86-7.21,16.55-7.31,25.44-4.18,22.51,7.92,65.61,44.79,87.38,59.79Z"/>
  <path class="cls-8" d="M1686.81,675.1c-5.87,37.82-11.08,74.93-18.16,112.58-17.99-11.16-96.53-47.53-72.66-74.5,9.39-10.6,74.06-30.17,90.82-38.08Z"/>
  <path class="cls-9" d="M1280.07,1655.63c45.94,55.38,81.65,111.71,163.42,101.68,56.54-6.93,89.33-65.94,127.11-101.68,75.66,31.29,165.32,49.54,228.79,101.68-84.43,93.48-194.74,151.94-323.21,167.05,2.14-11.02-5.36-6.38-12.03-7.76-127.26-26.28-250.55-97.18-318.44-210.14,44.04-18.37,90.39-32.51,134.37-50.84Z"/>
  <path class="cls-4" d="M1585.12,1310.63c1.87,35.28,3.19,89,0,123.47-4.99,54-32.95,91.9-69,127.11-13.91-1.03-22.64,12.16-35.45,13.88-24.7,3.31-66.17-33.51-80.67-52.1-52.03-66.69-26.88-162.65-32.77-241.41,55.14-8.76,104.62-36.74,153.77-60.96,3.66.64,6.62,2.53,9.4,4.89,6.02,5.11,47.21,50.14,49.87,55.46,6.52,13.02,4.15,16.5,4.85,29.66Z"/>
  <path class="cls-18" d="M1639.6,1328.79c-16.64-11.65-33.18-21.4-54.47-18.16-.7-13.16,1.67-16.64-4.85-29.66-2.66-5.32-43.86-50.36-49.87-55.46-2.78-2.36-5.74-4.25-9.4-4.89-49.15,24.22-98.63,52.21-153.77,60.96-15.47,2.46-38.09,2.51-54.47,3.63-7.18-115.81,39.04-190.6,142.6-237.09,5.4-2.43,11.89-.51,9.93-9.86,57.46,11.02,115.64,53.83,144.56,104.21,34.25,59.66,29.71,119.78,29.76,186.32Z"/>
  <path class="cls-6" d="M1367.23,1281.58c5.9,78.76-19.26,174.72,32.77,241.41,14.5,18.59,55.97,55.41,80.67,52.1,12.81-1.72,21.54-14.91,35.45-13.88l3.34,70.21c2.01,3.14,43.46,21.04,51.13,24.21-37.77,35.74-70.56,94.76-127.11,101.68l.02-170.7c-26.95.76-58.43-2.97-83.54-12.69-3.44-1.33-22.77-10.97-25.43-12.71-43.46-28.32-63.73-78.23-72.63-127.11-1.27-6.96,1.42-16.12-.06-23.51-3.55-17.65-22.83-23.85-12.81-56.56,5.71-18.65,8.19-19.43,12.87-43.4,1.25-6.42,5.39-20.89,10.84-23.66,13.03-3.96,26.78-.86,40-1.76,16.38-1.12,39.01-1.17,54.47-3.63Z"/>
  <path class="cls-16" d="M1465.28,1038.26c1.96,9.36-4.53,7.43-9.93,9.86-103.56,46.49-149.78,121.27-142.6,237.09-13.22.9-26.97-2.2-40,1.76-5.45,2.77-9.59,17.24-10.84,23.66-17.12-1.11-38.03,7.11-50.84,18.16,1.9-43.7-4.62-88.52,4.71-131.47,23.76-109.32,140.8-179.89,249.5-159.05Z"/>
  <path class="cls-20" d="M1334.54,1561.21c2.66,1.74,21.99,11.38,25.43,12.71,25.11,9.72,56.58,13.45,83.54,12.69l-.02,170.7c-81.77,10.02-117.48-46.31-163.42-101.68,8.57-3.57,50.47-20.86,52.72-25.36l1.76-69.06Z"/>
  <path class="cls-10" d="M1261.91,1310.63c-4.68,23.97-7.16,24.75-12.87,43.4-10.02,32.72,9.26,38.91,12.81,56.56,1.49,7.39-1.2,16.55.06,23.51-55.5-1.06-100.98-62.08-50.84-105.32,12.82-11.05,33.73-19.27,50.84-18.16Z"/>
  <path class="cls-20" d="M1639.6,1328.79c0,1.21,0,2.42,0,3.63,0,25.38,0,50.88,0,76.26-.39.4.66,4.88-2.56,7.31-14.37,10.87-33.72,17.76-51.91,18.11,3.19-34.47,1.87-88.19,0-123.47,21.29-3.25,37.83,6.51,54.47,18.16Z"/>
  <path class="cls-24" d="M1639.6,1332.42c24.56,16.61,22.85,51.39,7.32,73.72-2.18,3.13-6.96,2.17-7.32,2.54,0-25.38,0-50.88,0-76.26Z"/>
  <path class="cls-19" d="M731.7,464.47c1.73,37.44,2.47,86.36,0,123.47-3.08,46.34-28.67,101.67-69,127.11-2.68,1.69-32.57,14.29-34.86,14.52-23.44,2.26-63.78-31.35-77.63-49.1-54.44-69.8-25.79-162.98-32.77-245.05,20.65-3.26,46.47-11.73,66.27-19.07,18-6.67,77.64-40.59,87.87-39.15,9.58,1.36,57.91,56.99,59.92,67.62,1.18,6.24-.09,13.28.21,19.65Z"/>
  <path class="cls-18" d="M786.17,482.63c-15.75-11.55-34.32-20.32-54.47-18.16-.3-6.37.97-13.41-.21-19.65-2.01-10.63-50.34-66.26-59.92-67.62-10.23-1.45-69.87,32.47-87.87,39.15-19.8,7.34-45.62,15.82-66.27,19.07-17.87,2.82-39.9,2.43-58.11,3.63-.04-50.53,5.56-97.6,30.39-142.11,28.27-50.68,76.09-81.46,129.4-101.21,60.84,14.04,110.36,49.37,140.92,104.21,32.89,59.03,26.15,117.67,26.14,182.68Z"/>
  <path class="cls-21" d="M517.44,435.42c6.98,82.06-21.67,175.25,32.77,245.05,13.85,17.76,54.19,51.37,77.63,49.1,2.29-.22,32.19-12.83,34.86-14.52-3.42,68.2-4.28,70.02,54.47,94.42-34.32,38.25-69.97,91.36-123.47,101.68l.02-170.7c-13.61-.12-27.16.81-40.77-1-13.2-1.75-57.74-14.57-68.2-20.77-1.71-1.02-26.3-23.95-29.22-27.07-27.7-29.58-37.7-64.54-43.41-103.67-3.82-26.18-2.45-16.66-11.69-37.33-6.63-14.84-7.71-28.1-1.72-43.29,8.72-22.12,9.69-14.38,13.41-42.85,4.69-35.87,15.91-23.36,47.21-25.42,18.21-1.2,40.24-.81,58.11-3.63Z"/>
  <path class="cls-15" d="M619.12,195.73c-53.31,19.75-101.13,50.53-129.4,101.21-24.83,44.52-30.43,91.58-30.39,142.11-31.3,2.07-42.52-10.45-47.21,25.42-14.11-1.33-44.27,9.51-54.47,18.16,1.27-46.37-4.75-93.65,8.3-138.78,31.62-109.32,143.09-173.52,253.17-148.12Z"/>
  <path class="cls-23" d="M484.75,718.68c10.46,6.2,55,19.03,68.2,20.77,13.6,1.8,27.16.88,40.77,1l-.02,170.7c-82.45,15.92-115.38-50.33-167.05-98.05-.99-8.87,5.27-7.17,10.66-9.13,14.55-5.29,29.44-9.29,42.87-17.24,8.1-21.68,3.43-45.43,4.57-68.06Z"/>
  <path class="cls-17" d="M412.12,464.47c-3.72,28.47-4.69,20.73-13.41,42.85-5.99,15.19-4.91,28.45,1.72,43.29,9.24,20.67,7.86,11.15,11.69,37.33-55.19,6.24-100.82-66.05-54.47-105.32,10.21-8.65,40.37-19.49,54.47-18.16Z"/>
  <path class="cls-23" d="M786.17,482.63c0,1.21,0,2.42,0,3.63v79.89c-16.35,16.28-30,22.2-54.47,21.79,2.47-37.11,1.73-86.03,0-123.47,20.15-2.16,38.72,6.61,54.47,18.16Z"/>
  <path class="cls-22" d="M786.17,566.15v-79.89c27.78,23,24.24,55.75,0,79.89Z"/>
</svg>