<?xml version="1.0" encoding="UTF-8"?>
<svg id="Layer_1" data-name="Layer 1" xmlns="http://www.w3.org/2000/svg" viewBox="0 0 2000 2000">
  <defs>
    <style>
      .cls-1 {
        fill: #364c5f;
      }

      .cls-2 {
        fill: #e6e8e6;
      }

      .cls-3 {
        fill: #435a6b;
      }

      .cls-4 {
        fill: #e6e8e5;
      }

      .cls-5 {
        fill: #f4b54d;
      }

      .cls-6 {
        fill: #f5b84e;
      }

      .cls-7 {
        fill: #445c6c;
      }

      .cls-8 {
        fill: #ef5640;
      }

      .cls-9 {
        fill: #f16f59;
      }

      .cls-10 {
        fill: #fdd05c;
      }

      .cls-11 {
        fill: #fed05c;
      }

      .cls-12 {
        fill: #455c6c;
      }

      .cls-13 {
        fill: #e5e8e6;
      }

      .cls-14 {
        fill: #f4b44d;
      }

      .cls-15 {
        fill: #445c6d;
      }

      .cls-16 {
        fill: #fed05d;
      }

      .cls-17 {
        fill: #e3e6e4;
      }
    </style>
  </defs>
  <path class="cls-13" d="M1898.91,1699.31c1.87-.94,7.77.64,10.72,0v21.44c-8.66,1.88-14.46,7.83-23.05,10.9-52.96,18.97-156.03.09-214.57-4.08-35.07-2.5-64.87,4.54-101.72-8.7-42.42-15.24-25.72-20.19-17.96-48.14,24,11.2,54.32,21.91,80.83,24.58,22.2,2.23,45.22-1.26,67.4.49,63.46,5.01,130.25,39.22,192.53,10.05,3.29-1.54,5.04-6.14,5.83-6.54Z"/>
  <path class="cls-17" d="M133.83,1513.52c-37.51,27.75-19.84,86.19-17.72,123.12,1.69,29.31-10.49,91.02,2.61,111.72,22.79,36.02,116.13,28.81,150.88,11.7.25.75,9.51,3.3,6.93,12.07-2.06,3.98-6.22,6.44-10.34,7.74-11.55,3.67-59.49,5.87-73.59,5.35-34.15-1.25-71.78-11.68-87.99-44.18-16.75-33.58-7.38-68.08-10.54-103.8-1.51-17.07-6.99-37.01-10.17-54.32-1.22-6.64,4.09-14.3-7.23-12.24v-21.44c14-3.33,13.8-24.18,27.18-31.76,9.61-5.45,19.59-4.13,29.99-3.97Z"/>
  <path class="cls-8" d="M1409.4,416.6c20.05,4.71,31.13,50.35,42.88,66.09,10.93,14.65,24.37,18.24,35.82,28.5,8.28,7.42,31.54,39.98,33.99,41.05,1.61.7,9.16,1.61,8.78-1.95-.47-26.65,9.35-44.04,21.46-65.81,8.67-1.33,10.66,2.24,15.86,7.37,10.12,10,24.65,30.43,32.1,42.94,14.98,25.17,24.37,59.57,37.8,81.9-7.51,11.09-8.33,23.95-16.32,35.49-5.96,8.61-24.13,19.46-25.88,24.15-6.44,17.24-9.76,57.93-14.98,79.71-7.75,32.34-16.56,64.34-25.01,96.47-8.67-2.1-19.89-16.4-24.93-23.3-22.82-31.24-46.35-95.98-53.67-133.91l-3.57-3.57c-.13-2.36.2-4.79,0-7.15-2.14-25.72,2.77-53.82-.93-79.46-12.86-89.16-116.32-149.21-183.12-70.64-46.33,54.5-14.62,97.79,5.58,151.7,2.63,7.03,5.44,43.43,17.67,37.68l14.3-14.27c7.9,50.21,127.72,227.92,164.36,271.55-3.82,6.94-6.72,14.62-10.72,21.44-37.91,64.61-58.79,128.41-96.47,196.52-83.03-28.42-168.49-53.3-248.94-88.71-41.39-18.21-95.76-39.3-119.08-79.23,2.5-1.04,21.68-37.45,29.66-45.35,25.6-25.32,53.52-49.87,81.28-74.24,3.69-3.24,11.74-4.03,13.34-6.26,1.54-2.15,7.18-29.02,10.85-37.38,14.51-33.04,34.4-60.46,47.16-95.76,36.85-101.98,34.97-220.14,112.45-305.59,18.39-20.28,70.37-56.55,98.29-49.99Z"/>
  <path class="cls-16" d="M859.16,1256.26c6.43,7.14,27.58,33.25,34.74,35.22,13.06,3.59,43.53-21.42,47.42-17.34l-1.99,43.09,110.93,6.96c8.89-.35,15.64,4.11,23.28,7.11-23.08,25.75-50.07,49.39-76.91,71.37-82.03,67.16-169.64,128.94-279.06,138.98-31.23,2.87-65.07-2.26-95.96.52-35.62,3.2-76.92,16.6-114.85,20.93-57.27,6.54-138.49,1.26-190.7,21.89-26-25.45-39.05-56.06-35.73-92.9,55.91-15.29,103.63-43.97,156.33-63.41,108.1-39.89,209.23,3.66,306.27-72.47,31.45-24.67,89.63-72.75,116.23-99.94Z"/>
  <path class="cls-5" d="M1509.45,1002.57c14.98,15.92,48.01,39.69,66.76,52.93,41.78,29.5,75.92,56.87,129.82,41.82,17.11-4.78,46.82-25.86,59.09-26.75,10.33-.75,14.28,5.73,19.45,7.03-7.18,14.42,2.55,26.89,3.54,41.12,3.08,44.33-5.62,92.92-8.73,137.68-6.34,91.27-57.89,169.29-66.27,260.67-37.38,9.66-69.74,8.34-107.19,0,19.9-82.97-.01-160.01,7.2-241.12,2.01-22.6,12.37-43.59,14.24-66.16h-55.38c-20.82,0-101.1,34.86-133.86,41.21-26.98,5.23-54.83,7.86-82.3,8.81,11.75-17.42,19.66-44.61,28.58-60.74,37.68-68.11,58.57-131.91,96.47-196.52h28.58Z"/>
  <path class="cls-3" d="M1016.37,1031.16c23.32,39.92,77.69,61.01,119.08,79.23,80.45,35.41,165.92,60.29,248.94,88.71-8.92,16.13-16.84,43.32-28.58,60.74-4.15,6.15-17.61,22.16-23.18,28.63-13.34,15.49-31.04,23.86-39.88,43.11l-85.32-32.09-97.22,49.07c-14.27-1.88-21.74-11.39-36.67-17.26-7.64-3-14.39-7.46-23.28-7.11l-110.93-6.96,1.99-43.09c-3.9-4.09-34.36,20.93-47.42,17.34-7.16-1.97-28.31-28.08-34.74-35.22,8.57-8.76,17.5-25.81,26.75-35.78,9.75-10.51,33.65-27.84,39.31-35.72,6.1-8.5,4.9-19.59,9.52-29.78,8.56-18.85,38.99-47.23,47.44-63.33,6.75-12.86,8.72-45.64,18.13-56.94,5.11-6.14,12.69-2.15,16.07-3.55Z"/>
  <path class="cls-11" d="M1473.72,684.58c.2,2.35-.13,4.78,0,7.15l3.57,3.57c7.32,37.93,30.86,102.67,53.67,133.91,5.04,6.9,16.26,21.2,24.93,23.3l80.32,146.57c22.73,11.03,35.78,4.25,54.74-8.02,1.86-1.21.28-5.93.72-6.35,1.53-1.48,36.97-11.12,41.11-11.11,15.48.06,15.38,8.74,22.14,10.5,5.72,1.49,10.01-4.23,18.93.61,3.32,1.8,18.57,18.13,19.73,21.71,2.38,7.31-2.43,13.14-.3,17.6,1.53,3.21,41.17,26.5,9.15,28.58-1.54-3.12-33.67-15.5-39.34-8.9.16,8.84,30.94,18.92,39.34,19.62,2.34,5.53,9.43,9.71,7.13,17.85-8.77,1.12-16.72-1.47-24.99-3.55-5.17-1.3-9.11-7.79-19.45-7.03-12.27.9-41.99,21.98-59.09,26.75-53.9,15.05-88.04-12.32-129.82-41.82-18.75-13.24-51.78-37.01-66.76-52.93-3.4-3.61-14.05-16.89-17.87-21.44-36.64-43.63-156.46-221.34-164.36-271.55-1.02-6.48.67-14.63-.02-21.45l130.51-14.66,16,11.1Z"/>
  <path class="cls-5" d="M1638.08,616.69c23.28,38.71,58.42,77.94,83.84,114.38,12.3,17.63,26.5,69.94,32.33,92.81,13.52,52.97,22.58,105.8,19.6,160.83-8.92-4.84-13.21.88-18.93-.61-6.76-1.76-6.66-10.44-22.14-10.5-4.14-.01-39.58,9.63-41.11,11.11-8-33.87-26.65-64.18-36.74-97.24-4.65-15.22-11.02-63.41-15.1-70.65-1.3-2.3-31.09-26.51-37.56-33.9-7.84-8.95-12.04-19.88-21.36-26.88,5.22-21.77,8.54-62.47,14.98-79.71,1.75-4.68,19.92-15.53,25.88-24.15,7.98-11.54,8.8-24.4,16.32-35.49Z"/>
  <path class="cls-10" d="M1655.94,230.8c-.56,16.2,16.03,28.07,14.31,44.35-.96,9.06-9.29,13.99-10.67,21.98-2.77,16.07,4.77,36.65-.97,59.61-3.33,13.3-10.94,20.99-14.44,32.01-4.09,12.87-4.33,31.53-8.46,41.34-4.79,11.38-34.17,6.57-47.65,11.53l-58.32-25.64c-23.83-11.1-38.64-40.15-55.78-54.98-6.88-5.95-21.17-8.8-25.24-12.28-4.15-3.54-20.15-31.13-21.2-37.74-3.96-25-1.38-54.95,30.4-41.12,25.62,11.15,17.55,45.47,44.37,43.15-.87-16.61,6.39-36.12,19.68-46.46,6.22-4.84,13.17-4.59,19.74-12.42,13.24-15.76,3.88-44.18,33.49-41.17,10.87,1.1,22.4,13.66,32.42,13.89,10.41.24,22.67-11.54,32.2-10.57l16.12,14.52Z"/>
  <path class="cls-12" d="M1655.94,230.8l-16.12-14.52c-9.52-.96-21.78,10.81-32.2,10.57-10.02-.23-21.56-12.78-32.42-13.89-29.62-3.01-20.26,25.41-33.49,41.17-6.57,7.83-13.52,7.58-19.74,12.42-13.29,10.33-20.56,29.85-19.68,46.46-26.82,2.32-18.75-32-44.37-43.15-31.79-13.83-34.36,16.11-30.4,41.12,1.05,6.61,17.05,34.19,21.2,37.74-7.51,10.38-5.2,30.03-21.44,32.16,3.99-33.81-20.94-73.43-24.58-109.41-7.05-69.75,8.23-112.29,75.69-137.82,31.31-11.85,53.88-16.78,85.59-5.6,43.91,15.49,103.44,47.4,91.97,102.76Z"/>
  <path class="cls-15" d="M1898.91,1699.31c-.79.39-2.54,5-5.83,6.54-62.29,29.17-129.07-5.04-192.53-10.05-22.18-1.75-45.2,1.74-67.4-.49-26.5-2.66-56.82-13.38-80.83-24.58,7.33-26.4,3.83-76.88,35.73-82.18,1.05,4.56,26.01,34.58,31.9,37.76,18.35,9.91,52.11,1.4,68.04-11.07,10.02-7.84,8.52-20.79,28.71-15.99-4.06-14.55-2.94-28.22-3.59-42.86l18.03-2.13c9.43,39.17,56.55,104.54,96.19,114.81,23.07,5.98,68.15-4.62,71.58,30.25Z"/>
  <path class="cls-7" d="M216.01,1502.8c-4.28,1.12-33.13,20.92-37.15,25.37-13.65,15.1-24.1,53.6-10.89,70.91,7.61,9.97,32.32,9.2,33.75,25.2-12.61,19.05-42.44,93.4-14.22,105.31,14.48,6.11,39.21,0,42.8-15.98,7.96,8.77,23.6,13.05,30.6,21.19,8.05,9.36,5.73,16.39,8.7,25.25-34.75,17.11-128.09,24.33-150.88-11.7-13.1-20.71-.93-82.42-2.61-111.72-2.13-36.93-19.79-95.37,17.72-123.12,12.31-9.11,70.48-27.17,82.18-10.72Z"/>
  <path class="cls-14" d="M1448.71,348.71c4.07,3.48,18.36,6.32,25.24,12.28,17.14,14.82,31.96,43.88,55.78,54.98l58.32,25.64c-17.5,6.43-27.05,27.27-35.73,42.88-12.11,21.77-21.93,39.15-21.46,65.81.38,3.56-7.17,2.65-8.78,1.95-2.44-1.07-25.7-33.63-33.99-41.05-11.45-10.26-24.88-13.85-35.82-28.5-11.75-15.74-22.83-61.38-42.88-66.09,6.44-13.39,15.98-19.79,17.87-35.73,16.24-2.12,13.93-21.78,21.44-32.16Z"/>
  <path class="cls-4" d="M280.33,1492.08c-3.32,36.83,9.73,67.45,35.73,92.9-14.34,5.66-39.22,24.11-50.02,35.73-14.17-5.06-26.81-15.06-40.57-21.07-2.55.43-21.37,21.06-23.74,24.64-1.44-16-26.14-15.23-33.75-25.2-13.21-17.31-2.75-55.81,10.89-70.91,4.03-4.45,32.88-24.25,37.15-25.37,17.71-4.64,42.33-4.71,64.31-10.72Z"/>
  <path class="cls-2" d="M1713.11,1517.09c-1.53,16.69-.64,24.81,0,39.3.65,14.64-.47,28.31,3.59,42.86-20.18-4.81-18.68,8.14-28.71,15.99-15.93,12.47-49.69,20.98-68.04,11.07-5.89-3.18-30.85-33.2-31.9-37.76-1.33-5.81,8.56-49.15,10.85-58.93,1.53-6.52,6.79-11.6,7.01-12.53,37.45,8.34,69.81,9.66,107.19,0Z"/>
  <path class="cls-6" d="M1802.43,1052.6c1.03,2.08-1.01,8.34,0,10.72-8.4-.69-39.18-10.78-39.34-19.62,5.67-6.61,37.8,5.78,39.34,8.9Z"/>
  <path class="cls-1" d="M266.04,1620.71c2.41.86,25.94,0,21.42,8.9-2.44,4.8-33.21,24.68-42.23,36.39-17.25,22.39-10.11,26.2-14.92,47.61-3.59,15.99-28.32,22.09-42.8,15.98-28.23-11.9,1.61-86.26,14.22-105.31,2.37-3.59,21.19-24.21,23.74-24.64,13.76,6.01,26.4,16,40.57,21.07Z"/>
  <path class="cls-9" d="M1473.72,684.58l-16-11.1-130.51,14.66c.69,6.82-1,14.98.02,21.45l-14.3,14.27c-12.23,5.76-15.04-30.65-17.67-37.68-20.2-53.91-51.91-97.21-5.58-151.7,66.79-78.57,170.26-18.52,183.12,70.64,3.7,25.64-1.21,53.75.93,79.46Z"/>
  <path class="cls-9" d="M1477.29,695.29l-3.57-3.57,3.57,3.57Z"/>
</svg>