<?xml version="1.0" encoding="UTF-8"?>
<svg id="Layer_1" data-name="Layer 1" xmlns="http://www.w3.org/2000/svg" viewBox="0 0 1980.46 1985">
  <defs>
    <style>
      .cls-1 {
        fill: #d2dbfa;
      }

      .cls-2 {
        fill: #5d6ea5;
      }

      .cls-3 {
        fill: #e8eefe;
      }

      .cls-4 {
        fill: #bec8f6;
      }

      .cls-5 {
        fill: #bfc8f6;
      }

      .cls-6 {
        fill: #112360;
      }

      .cls-7 {
        fill: #bfc9f6;
      }

      .cls-8 {
        fill: #fdfefe;
      }

      .cls-9 {
        fill: #e7edfd;
      }
    </style>
  </defs>
  <path class="cls-2" d="M1068.61,0l146.97,25.16c727.53,171.52,1016.36,1064.32,510.35,1626.42-19.35-57.65-38.44-117.81-66.2-172.06-33.53-65.51-55.66-83.21-123.26-110.96,15.23-38.99,40.7-72.58,57.45-111.05,146.2-335.81-9.45-724.9-340.97-870.5-11.2-4.92-34.16-17.82-45.14-10.96-42.29-48.91-109.97-90.12-174-100.8-99.28-16.57-194.65,26.6-259.06,100.8-10.15-5.76-34.79,6.4-45.17,10.93-376.24,164.27-516.16,638.02-279.63,977.69-95.5,38.03-114.2,80.49-152.61,170.71-15.87,37.28-30.99,76.86-40.72,116.19-109-122.54-186.12-254.97-226.23-418.68-12.86-52.49-18.52-106.11-28.97-158.98,3.33-54.06-4.49-113.3,0-166.71C35.97,496.32,344.8,131.67,742.19,31.32L913.95,0h154.66Z"/>
  <path class="cls-1" d="M535.02,1341.43c180.11,342.48,574.64,542.98,958.92,504-136.34,80.64-277.78,126.92-436.93,139.57h-131.46l-9.34-4.05c-155.74-6.95-303-59.65-435.32-139.4l-50.2-160.93c-9.9-4.28-26.63-3.67-30.22,8.57-6.94,23.7,3.5,71.44-.78,98.08-61.44-46.27-93.57-80.05-143.06-135.69,9.73-39.32,24.85-78.9,40.72-116.19,38.41-90.22,57.11-132.67,152.61-170.71,26.12-10.4,58.78-15.56,85.07-23.26Z"/>
  <path class="cls-3" d="M1161.41,1089.42l.41,185.69c123.15,26.19,257.82,45.49,374.65,93.45,67.6,27.75,89.74,45.46,123.26,110.96,27.76,54.24,46.85,114.4,66.2,172.06-26.01,28.89-51.16,60.43-81.14,87.29-17.5,15.68-40.64,35.98-61.92,44.53,1.75-13.11,2.19-84.13-.78-94.21-3.64-12.38-23.62-14.06-32.49-6.97-10.87,8.69-38.64,137.2-47.93,159.33-2.87,1.76-5.62,2.62-7.73,3.88-384.28,38.97-778.81-161.52-958.92-504,94.43-27.69,188.82-49.7,286.13-65.91,126.16-21.02,182.74-26.79,270.66-127.94,12.89-14.83,37.89-33.62,54.07-48.54,4.77-4.4,7.95-9.71,15.52-9.62Z"/>
  <path class="cls-6" d="M1536.47,1368.56c-116.83-47.96-251.5-67.26-374.65-93.45l-.41-185.69c146.33-184.7,211.9-521.97,46.4-713.36,10.97-6.86,33.93,6.04,45.14,10.96,331.52,145.59,487.17,534.68,340.97,870.5-16.75,38.46-42.22,72.05-57.45,111.05Z"/>
  <path class="cls-6" d="M774.75,376.06c-158.89,183.03-105.36,486.4,18.48,673.51,9.67,14.61,25.98,27.18,27.92,43.73,6.6,56.28-4.9,124.58,0,182.22-97.31,16.21-191.7,38.22-286.13,65.91-26.28,7.71-58.94,12.86-85.07,23.26-236.53-339.67-96.61-813.43,279.63-977.69,10.38-4.53,35.01-16.69,45.17-10.93Z"/>
  <path class="cls-8" d="M1207.81,376.06c165.5,191.39,99.93,528.66-46.4,713.36-7.58-.09-10.75,5.22-15.52,9.62-16.18,14.92-41.18,33.71-54.07,48.54-17.53,6.41-32,13.88-50.27,19.38-116.94-50.97-189.16-177.69-225.29-295.55-66.09-215.57-33.52-501.35,205.25-587.36,6.31-2.27,14.72,2.91,12.31-8.78,64.03,10.68,131.7,51.89,174,100.8ZM967.15,473.99c-70.12,9.53-136.69,83.37-126.85,156.23,4.34,32.15,47.59,31.24,56.47,1.95,8.33-27.48.33-44.71,24.93-71.93,96.3-106.55,239.99,75.06,118.71,146.17-20.95,12.28-68.23,11.76-75.23,29.24-7.27,18.13-7.6,116.03-4.48,138.25,5.93,42.31,53.39,43.55,60.6,3.31,3.47-19.36-3.11-94,2.61-102.06,188.01-48.21,138.55-327.69-56.76-301.16ZM986.4,965.95c-33.66,6.12-31.04,66.65,13.67,56.8,35.21-7.76,20.64-63.04-13.67-56.8Z"/>
  <path class="cls-9" d="M1033.81,275.26c2.41,11.69-6,6.51-12.31,8.78-238.77,86.02-271.34,371.79-205.25,587.36,36.13,117.86,108.35,244.59,225.29,295.55-58.54,17.65-104.02,8.54-155.86-24-23.02-14.45-41.23-36.48-64.54-49.66-1.94-16.54-18.25-29.12-27.92-43.73-123.84-187.11-177.37-490.48-18.48-673.51,64.41-74.2,159.78-117.37,259.06-100.8Z"/>
  <path class="cls-4" d="M1582.87,1783.4c-.28,2.12,1,4.72-.85,6.81-25.69,18.94-53.18,34.73-80.35,51.34,9.29-22.13,37.06-150.64,47.93-159.33,8.87-7.09,28.85-5.41,32.49,6.97,2.96,10.08,2.53,81.1.78,94.21Z"/>
  <path class="cls-4" d="M480.89,1841.55c-30.39-18.32-52.7-32.82-81.2-54.28,4.28-26.65-6.16-74.39.78-98.08,3.59-12.25,20.32-12.85,30.22-8.57l50.2,160.93Z"/>
  <path class="cls-1" d="M1041.55,1166.96c18.27-5.51,32.73-12.98,50.27-19.38-87.93,101.14-144.5,106.92-270.66,127.94-4.9-57.64,6.6-125.94,0-182.22,23.31,13.18,41.52,35.21,64.54,49.66,51.84,32.54,97.32,41.65,155.86,24Z"/>
  <path class="cls-5" d="M967.15,473.99c195.31-26.53,244.76,252.95,56.76,301.16-5.72,8.06.86,82.7-2.61,102.06-7.21,40.24-54.67,39-60.6-3.31-3.12-22.22-2.78-120.11,4.48-138.25,7-17.48,54.28-16.96,75.23-29.24,121.28-71.11-22.41-252.72-118.71-146.17-24.6,27.22-16.6,44.45-24.93,71.93-8.88,29.29-52.13,30.2-56.47-1.95-9.84-72.85,56.72-146.7,126.85-156.23Z"/>
  <path class="cls-7" d="M986.4,965.95c34.3-6.24,48.87,49.04,13.67,56.8-44.7,9.85-47.32-50.68-13.67-56.8Z"/>
</svg>