<?xml version="1.0" encoding="UTF-8"?>
<svg id="Layer_1" data-name="Layer 1" xmlns="http://www.w3.org/2000/svg" viewBox="0 0 1980.46 1985">
  <defs>
    <style>
      .cls-1 {
        fill: #def3fb;
      }

      .cls-2 {
        fill: #fc8087;
      }

      .cls-3 {
        fill: #fc4755;
      }

      .cls-4 {
        fill: #fd646f;
      }
    </style>
  </defs>
  <path class="cls-3" d="M1597.71,670.98c315.74,603.91-330.52,1250.65-932.3,932.28-390.21-206.44-486.98-726.18-197-1060.96,313.5-361.95,907.57-295.41,1129.3,128.68ZM751.79,656.78c-66,10.42-111.75,81.22-102.01,146.26,10.55,70.38,117,139.38,160.16,193.43,0,11.12-133.31,120.16-150.45,162.85-48.08,119.78,83.81,226.74,186.82,154.67,25.32-17.72,126.82-139.06,143.5-136.11,65.04,49.79,131.89,168.7,225.17,159.79,40.3-3.85,83.29-32.13,100.55-68.83,60.86-129.42-84.88-189.7-143.2-279.3,67.64-82.28,227.81-168.67,128.11-290.53-107.23-131.07-235.63,44.3-309.53,116.49-69.16-58.21-135.38-175.1-239.13-158.72Z"/>
  <g>
    <path class="cls-4" d="M1951.34,887.98c5.18,56.11,5.18,160.89,0,217-82.59,893.92-1317.38,1178.04-1784.22,385.77,148.5,70.99,289.07,108.93,453.86,121,12.91.95,36.46,3.97,44.43-8.49,601.77,318.37,1248.03-328.37,932.3-932.28,14.95-8.35,7.2-28.88,5.77-41.78-11.84-106.65-18.01-196.91-53.7-300.08-18.7-54.06-52.03-101.15-64.59-156.43,245.55,146.63,439.22,423.81,466.15,715.28Z"/>
    <path class="cls-2" d="M1485.2,172.69c12.56,55.28,45.89,102.37,64.59,156.43,35.69,103.18,41.87,193.43,53.7,300.08,1.43,12.9,9.17,33.43-5.77,41.78-221.72-424.09-815.8-490.63-1129.3-128.68-289.97,334.78-193.21,854.52,197,1060.96-7.97,12.45-31.52,9.43-44.43,8.49-164.79-12.07-305.36-50.01-453.86-121C-344.06,623.23,629.17-338.48,1485.2,172.69Z"/>
    <path class="cls-1" d="M751.79,656.78c103.75-16.38,169.97,100.5,239.13,158.72,73.89-72.19,202.3-247.56,309.53-116.49,99.69,121.86-60.47,208.26-128.11,290.53,58.32,89.6,204.06,149.88,143.2,279.3-17.26,36.7-60.25,64.98-100.55,68.83-93.28,8.91-160.14-110-225.17-159.79-16.68-2.95-118.18,118.39-143.5,136.11-103.01,72.07-234.91-34.89-186.82-154.67,17.14-42.7,150.45-151.73,150.45-162.85-43.16-54.05-149.61-123.05-160.16-193.43-9.74-65.04,36.01-135.84,102.01-146.26Z"/>
  </g>
</svg>