<?xml version="1.0" encoding="UTF-8"?>
<svg id="Layer_1" data-name="Layer 1" xmlns="http://www.w3.org/2000/svg" viewBox="0 0 1959.36 1214.84">
  <defs>
    <style>
      .cls-1 {
        fill: #4b65d1;
      }

      .cls-2 {
        fill: #2d86e0;
      }

      .cls-3 {
        fill: #fff;
      }

      .cls-4 {
        fill: #3e91e5;
      }

      .cls-5 {
        fill: #1d61ce;
      }

      .cls-6 {
        fill: #4357c9;
      }

      .cls-7 {
        fill: #3845b8;
      }

      .cls-8 {
        fill: #59a1f7;
      }

      .cls-9 {
        fill: #2537a0;
      }
    </style>
  </defs>
  <path class="cls-3" d="M1264.36,1181.8s-12.75,6.62-17.09,6.01c-3.92-.55-15.95-10.62-15.95-10.62,0,0,8.01,13.83,7.49,17.55-.63,4.54-12.1,15.48-12.1,15.48,0,0,13.48-6.36,17.22-5.84,4.52.63,15.82,10.45,15.82,10.45,0,0-6.47-12.74-5.84-17.27.52-3.73,10.44-15.77,10.44-15.77Z"/>
  <g>
    <path class="cls-7" d="M1026.67,81.5l.12-.05c-1.21-1.68-2.28-3.48-3.15-5.43l-.11-.25c-7.17-16.09,1.03-34.59,18-40.55,71.72-25.18,186.83-51.42,309.53-22.7,152.76,35.76,272.04,148.99,329.36,203.41,9.3,8.83,20.07,18.57,23.06,21.08,88.02,74.08,185.97,59.53,231.55,46.68,20.25-5.71,33.85,21.1,16.17,32.15-.14.09-.28.17-.42.26-1.86,1.42-3.91,2.66-6.16,3.68-11.44,5.17-23.38,9.54-35.73,13.05-42.27,12.03-78.34,16-109.91,14.49-55.95-2.69-97.75-22.63-134.7-45.54-7.45-4.62-16.7-12.55-32.04-25.7-55.82-47.85-171.98-147.43-309.07-172.44-108.29-19.75-208.75,8.61-271.29,34.17-15.47,6.32-33.41-.05-40.88-14.68l-.28-.55c-8.01-15.66-.68-34.51,15.97-41.09Z"/>
    <path class="cls-9" d="M1026.67,81.5l.12-.05c-1.21-1.68-2.28-3.48-3.15-5.43l-.11-.25c-7.17-16.09,1.03-34.59,18-40.55,3.99-1.4-7.69,33.53-.29,49.49l.26.56c6.91,14.9,24.6,21.94,40.29,16.22,63.47-23.17,164.92-47.7,272.39-23.86,136.05,30.19,248.34,134.1,302.31,184.03,14.83,13.72,23.77,22,31.04,26.9,36.05,24.29,77.06,45.81,132.88,50.62,23.68,2.04,50.02,1.07,79.78-3.96-38.56,10.17-71.85,13.52-101.24,12.11-55.95-2.69-97.75-22.63-134.7-45.54-7.45-4.62-16.7-12.55-32.04-25.7-55.82-47.85-171.98-147.43-309.07-172.44-108.29-19.75-208.75,8.61-271.29,34.17-15.47,6.32-33.41-.05-40.88-14.68l-.28-.55c-8.01-15.66-.68-34.51,15.97-41.09Z"/>
    <path class="cls-1" d="M1501.61,101.7h0c2.3-3.18,1.54-7.64-1.68-9.89-43.83-30.65-91.98-53.15-143.23-66.91-69.42-18.65-143.58-20.46-214.96-5.32-3.85.82-6.29,4.62-5.41,8.45h0c.85,3.74,4.54,6.1,8.29,5.31,69.22-14.69,141.14-12.94,208.43,5.13,49.67,13.34,96.34,35.15,138.83,64.87,3.14,2.2,7.47,1.46,9.71-1.65Z"/>
    <path class="cls-6" d="M1833,315.01c21.1,2.06,42.13,1.39,62.93-2.02,11.5-1.89,22.95-4.65,34.13-8.22,3.79-1.21,5.86-5.29,4.53-9.05h0c-1.26-3.57-5.12-5.52-8.72-4.37-10.56,3.38-21.37,5.98-32.22,7.76-33.41,5.49-67.53,3.44-101.5-6.07-3.68-1.03-7.51,1.03-8.63,4.68h0c-1.16,3.77.99,7.77,4.78,8.84,14.89,4.18,29.81,6.99,44.71,8.45Z"/>
  </g>
  <g>
    <path class="cls-7" d="M932.69,81.5l-.12-.05c1.21-1.68,2.28-3.48,3.15-5.43l.11-.25c7.17-16.09-1.03-34.59-18-40.55-71.72-25.18-186.83-51.42-309.53-22.7-152.76,35.76-272.04,148.99-329.36,203.41-9.3,8.83-20.07,18.57-23.06,21.08-88.02,74.08-185.97,59.53-231.55,46.68-20.25-5.71-33.85,21.1-16.17,32.15.14.09.28.17.42.26,1.86,1.42,3.91,2.66,6.16,3.68,11.44,5.17,23.38,9.54,35.73,13.05,42.27,12.03,78.34,16,109.91,14.49,55.95-2.69,97.75-22.63,134.7-45.54,7.45-4.62,16.7-12.55,32.04-25.7,55.82-47.85,171.98-147.43,309.07-172.44,108.29-19.75,208.75,8.61,271.29,34.17,15.47,6.32,33.41-.05,40.88-14.68l.28-.55c8.01-15.66.68-34.51-15.97-41.09Z"/>
    <path class="cls-9" d="M932.69,81.5l-.12-.05c1.21-1.68,2.28-3.48,3.15-5.43l.11-.25c7.17-16.09-1.03-34.59-18-40.55-3.99-1.4,7.69,33.53.29,49.49l-.26.56c-6.91,14.9-24.6,21.94-40.29,16.22-63.47-23.17-164.92-47.7-272.39-23.86-136.05,30.19-248.34,134.1-302.31,184.03-14.83,13.72-23.77,22-31.04,26.9-36.05,24.29-77.06,45.81-132.88,50.62-23.68,2.04-50.02,1.07-79.78-3.96,38.56,10.17,71.85,13.52,101.24,12.11,55.95-2.69,97.75-22.63,134.7-45.54,7.45-4.62,16.7-12.55,32.04-25.7,55.82-47.85,171.98-147.43,309.07-172.44,108.29-19.75,208.75,8.61,271.29,34.17,15.47,6.32,33.41-.05,40.88-14.68l.28-.55c8.01-15.66.68-34.51-15.97-41.09Z"/>
    <path class="cls-1" d="M457.75,101.7h0c-2.3-3.18-1.54-7.64,1.68-9.89,43.83-30.65,91.98-53.15,143.23-66.91,69.42-18.65,143.58-20.46,214.96-5.32,3.85.82,6.29,4.62,5.41,8.45h0c-.85,3.74-4.54,6.1-8.29,5.31-69.22-14.69-141.14-12.94-208.43,5.13-49.67,13.34-96.34,35.15-138.83,64.87-3.14,2.2-7.47,1.46-9.71-1.65Z"/>
    <path class="cls-6" d="M126.36,315.01c-21.1,2.06-42.13,1.39-62.93-2.02-11.5-1.89-22.95-4.65-34.13-8.22-3.79-1.21-5.86-5.29-4.53-9.05h0c1.26-3.57,5.12-5.52,8.72-4.37,10.56,3.38,21.37,5.98,32.22,7.76,33.41,5.49,67.53,3.44,101.5-6.07,3.68-1.03,7.51,1.03,8.63,4.68h0c1.16,3.77-.99,7.77-4.78,8.84-14.89,4.18-29.81,6.99-44.71,8.45Z"/>
  </g>
  <circle class="cls-8" cx="981.86" cy="92.98" r="75.46" transform="translate(221.84 721.52) rotate(-45)"/>
  <path class="cls-4" d="M1029.34,34.34c7.34,11.64,11.6,25.41,11.6,40.19,0,41.68-33.78,75.46-75.46,75.46-18,0-34.51-6.31-47.48-16.82,13.36,21.19,36.96,35.27,63.86,35.27,41.68,0,75.46-33.78,75.46-75.46,0-23.68-10.92-44.8-27.98-58.64Z"/>
  <circle class="cls-2" cx="981.86" cy="92.98" r="30.93" transform="translate(673.99 1029.95) rotate(-77.22)"/>
  <path class="cls-5" d="M981.86,62.05c-10.11,0-19.09,4.85-24.73,12.35,5.17-3.89,11.61-6.2,18.58-6.2,17.08,0,30.93,13.85,30.93,30.93,0,6.97-2.31,13.41-6.2,18.58,7.5-5.64,12.35-14.62,12.35-24.73,0-17.08-13.85-30.93-30.93-30.93Z"/>
</svg>