<?xml version="1.0" encoding="UTF-8"?>
<svg id="Layer_1" data-name="Layer 1" xmlns="http://www.w3.org/2000/svg" viewBox="0 0 1977.07 1852">
  <defs>
    <style>
      .cls-1 {
        fill: #6f859c;
      }
    </style>
  </defs>
  <path class="cls-1" d="M1977.07,1083.92c-23.41,73.12-119.31,76.4-145.02,4.07l-1.63-557.2c-1.3-16.11-13.23-31.69-30.98-28.82v1262.17c0,1.87-5.29,24.32-6.49,28.21-25.45,82.75-150.58,78.42-169.38-6.84l-1.75-718.94-6.33-9.09-32.29-.54v718.76c0,3.27-8.9,26.21-11.46,30.96-32.61,60.52-127.69,59.74-156.72-1.86-2.02-4.28-9.45-22.67-9.45-25.25V501.97c-87.08-.1-174.95,19.87-261.5,12.41-21.78-8.04-32.46-21.66-45.15-39.72-47.48-67.56-113.83-175.95-152.08-249.02-4.31-8.23-13.69-22.93-15.35-30.92-15.89-76.43,72.27-123.55,126.54-68.49l149.46,240.92,207.58-15.64c127.1,7.49,264.46-9.41,390.32,0,68.21,5.1,127.88,43.62,156.93,105.45l14.76,45.01v581.95Z"/>
  <path class="cls-1" d="M0,501.97c17.78-85.06,84.57-143.93,171.68-150.45,125.86-9.42,263.22,7.48,390.32,0l207.58,15.64,112.77-181.12c7.75,17.15,10.42,32.55,19.24,50.1,8.65,17.21,60.24,90.31,59.12,101.48-31.61,39.62-70.56,141.37-109.89,167.58-23.52,15.67-45.52,13.07-72.68,12.17-38.5-1.28-80.93-8.83-119.79-11.48-28.77-1.96-58.04-2.9-86.84-3.89v1277.58c0,2.58-7.44,20.97-9.45,25.25-29.03,61.59-124.1,62.37-156.72,1.86-2.56-4.75-11.46-27.69-11.46-30.96v-718.76l-32.29.54-6.33,9.09-1.75,718.94c-17.77,82.99-141.37,89.53-168.36,9.68-1.59-4.69-7.51-28.17-7.51-31.05V501.97c-17.75-2.87-29.68,12.71-30.98,28.82l-1.63,557.2c-25.71,72.33-121.61,69.05-145.02-4.07V501.97Z"/>
  <path class="cls-1" d="M1574.55,1.96c204.58-27.79,243.65,249.03,69.1,296.35-210.67,57.12-268.02-269.33-69.1-296.35Z"/>
  <path class="cls-1" d="M346.6,1.96c204.54-27.78,244.21,248.87,69.1,296.35C206.14,355.13,147.33,29.02,346.6,1.96Z"/>
</svg>