<?xml version="1.0" encoding="UTF-8"?>
<svg id="Layer_1" data-name="Layer 1" xmlns="http://www.w3.org/2000/svg" viewBox="0 0 1833.14 2000">
  <defs>
    <style>
      .cls-1 {
        fill: #3d4d59;
      }

      .cls-2 {
        fill: #ffce00;
      }
    </style>
  </defs>
  <path class="cls-2" d="M681.16,959.81c-65.05,69.89-148.88,90.72-132.83,203.89,12.02,84.74,44.05,235.21,69.07,316.5,6.52,21.18,12.89,35.94,39.56,33.93,33.51-2.53,101.31-37.18,127.58-59.25,84.91-71.3,81.47-183.22,95.88-283.64,47.24,7.3,95.64,41.22,131.65,72.59,150.84,131.43,282.9,304.76,434.3,438.37,41.64,57.06-26.52,132.36-88.66,96.78l-321.16-316.06c-29.26-15.7-62.25,11.94-46.38,42.29l307.85,309.11c50.05,60.79-15.31,146.57-85.71,106l-330.23-327.32c-30.38-23.78-66.36,4.29-51.03,38.89l251.98,255.36c40.09,62.49-24.04,133.85-90.75,98.87l-268.49-267.29c-34.88-24.13-68.74,3.5-50.22,42.12,26.24,38.48,133.01,114.45,140.58,155.68,13,70.76-64.56,108.95-116.79,64.05l-392.71-394.22,124.86-626.64h251.65Z"/>
  <path class="cls-2" d="M673.05,1438.78l-63.12-300.2c-.97-18.88,8.51-38.77,22.42-51,84.3-55.75,165.12-153.82,247.95-206.65,94.89-60.53,155.91,26.68,229.85,69.97,90.42,52.94,194.82,80.12,299.27,58.05l4.42,3.49,111.65,562.09-46.78,50.87-249.52-261.83c-68.19-69.15-229.59-241.48-323.24-253.13-107.7-13.39-88,64.75-99.51,139.06-13.52,87.27-39.55,164.07-133.41,189.28Z"/>
  <path class="cls-1" d="M363.6,908c5.64,5.67,5.71,21.02,4.63,28.92l-135.79,676.17-13.87,10.64-202.89-37.02c-8.4-6.35-16.99-15.81-15.52-27.06l136.17-679.93c7.2-17.1,23.3-14.17,39.01-12.77,41.06,3.68,125.04,21.72,165.69,33.15,5.62,1.58,19.27,4.57,22.56,7.88Z"/>
  <path class="cls-1" d="M1469.55,908c3.29-3.31,16.94-6.3,22.56-7.88,40.65-11.43,124.63-29.47,165.69-33.15,15.71-1.41,31.81-4.33,39.01,12.77l136.17,679.93c1.47,11.25-7.12,20.71-15.52,27.06l-202.89,37.02-13.87-10.64-135.79-676.17c-1.08-7.9-1-23.25,4.63-28.92Z"/>
  <path class="cls-1" d="M216.41,748.74c-26.98-4.88-8.13-66.43-3.09-84.27,80.04-283.4,496.22-274.86,566.4,8.03,3.17,12.78,16.18,76.24-3.18,76.24H216.41Z"/>
  <path class="cls-1" d="M1056.6,748.74c-19.59-5.49-7.03-60.72-3.18-76.24,70.18-282.89,486.36-291.44,566.4-8.03,4.18,14.8,23.87,84.27-3.09,84.27h-560.13Z"/>
  <path class="cls-1" d="M883.05,2.88c257.3-40.02,245.03,350.95,8.97,313.8-179.73-28.29-171.37-288.54-8.97-313.8Z"/>
  <path class="cls-1" d="M382.23,141.34c155.38-155.4,384.23,97.01,213.74,236.06-155.94,127.18-354.58-95.2-213.74-236.06Z"/>
  <path class="cls-1" d="M1317.51,96.39c214.74-25.04,239.08,292.45,47.14,315.03-224.2,26.37-247.37-291.68-47.14-315.03Z"/>
  <path class="cls-1" d="M993.3,650.92h-153.45c-20.7-79.44-72.24-149.04-138.33-196.45,110.75-127.19,319.52-127.04,430.1,0-66.46,47.11-117.47,117.1-138.33,196.45Z"/>
</svg>