<?xml version="1.0" encoding="UTF-8"?>
<svg id="Layer_1" data-name="Layer 1" xmlns="http://www.w3.org/2000/svg" viewBox="0 0 2000 2000">
  <defs>
    <style>
      .cls-1 {
        fill: #6f859c;
      }

      .cls-2 {
        fill: #2a4359;
      }
    </style>
  </defs>
  <path class="cls-1" d="M1226.55,255.26v-81.17c0-44.83-26.48-81.18-59.14-81.18h-236.57c-32.66,0-59.14,36.34-59.14,81.18v81.18h354.86Z"/>
  <path class="cls-2" d="M1359.98,208.31h-103.96v-36.97c0-60.85-39.76-110.33-88.62-110.33h-236.55c-48.86,0-88.62,49.48-88.62,110.33v36.97h-103.96c-64.97,0-117.81,65.84-117.81,146.72v1437.26c0,80.92,52.84,146.72,117.81,146.72h621.72c64.97,0,117.81-65.8,117.81-146.72V355.02c0-80.88-52.84-146.72-117.81-146.72ZM901.13,171.33c0-20.39,13.34-36.97,29.72-36.97h236.55c16.37,0,29.72,16.58,29.72,36.97v36.97h-295.99v-36.97ZM1418.88,1792.28c0,40.46-26.42,73.36-58.9,73.36h-621.72c-32.48,0-58.9-32.9-58.9-73.36V355.02c0-40.42,26.42-73.36,58.9-73.36h621.72c32.48,0,58.9,32.94,58.9,73.36v1437.26Z"/>
</svg>