<?xml version="1.0" encoding="UTF-8"?>
<svg id="Layer_1" data-name="Layer 1" xmlns="http://www.w3.org/2000/svg" viewBox="0 0 2000 2000">
  <defs>
    <style>
      .cls-1 {
        fill: #b9eb6e;
      }

      .cls-2 {
        fill: #01cffa;
      }

      .cls-3 {
        fill: #effafe;
      }

      .cls-4 {
        fill: #02cffa;
      }

      .cls-5 {
        fill: #99e5fb;
      }

      .cls-6 {
        fill: #03cffa;
      }

      .cls-7 {
        fill: #02c0f9;
      }

      .cls-8 {
        fill: #03d0fa;
      }

      .cls-9 {
        fill: #c7eefd;
      }

      .cls-10 {
        fill: #9ae6fb;
      }

      .cls-11 {
        fill: #eef9fe;
      }

      .cls-12 {
        fill: #9be6fb;
      }

      .cls-13 {
        fill: #62daf9;
      }

      .cls-14 {
        fill: #62dafa;
      }

      .cls-15 {
        fill: #61dafa;
      }

      .cls-16 {
        fill: #1cd3fa;
      }

      .cls-17 {
        fill: #03c0f9;
      }

      .cls-18 {
        fill: #fefefe;
      }

      .cls-19 {
        fill: #9ae5fb;
      }

      .cls-20 {
        fill: #fdfefe;
      }
    </style>
  </defs>
  <path class="cls-14" d="M288.22,1921.85c56.8-.23,113.79.1,170.59,0,179.57-.31,359.33.1,538.9,0,76.18-.04,152.56-.05,228.74,0,55.51.03,111.2-.06,166.71,0,92.98.09,186.16-.18,279.14,0,105.19.21,210.51-.35,315.74.23,32.3,8.01,33.37,41.76,6.04,57.93H71.11c-25.71-15.41-27.12-46.26,2.77-57.33l214.34-.83Z"/>
  <path class="cls-19" d="M1575.37-5c5.57,1.39,12.77,10.23,15.51,11.63-64.06,25.66-77.08,110.05-29.21,159.09,8.45,8.66,24.17,11.14,25.34,23.13-54.51,18.46-113.99-10.23-130.73-65.06-18.5-60.56,18.23-107.95,72.58-128.79h46.52Z"/>
  <path class="cls-14" d="M761.21,204.36l1.96,127.91c77.05,49.71,164.64,80.59,208.07,167.99,47.27,95.14,18.88,215.09,26.22,318.36-8.35,31.06-29.22,48.78-57.92,60.33-24.27-4.33-59.58,3.16-85.29,0,4.11-108.48-66.73-199.06-174.46-217.11-63.39-10.62-117.69,2.33-168.53,42.76l-52.45,54.16c12.31-110.76-26.48-197.55,52.66-298.2,48.12-61.2,89.46-60.09,142.48-97.89,43.01-30.67,20.17-112.35,25.84-158.31,27.02-.25,54.44,1.02,81.42,0Z"/>
  <path class="cls-4" d="M509.21,1286.03c-3.5,13.62-19.8,13.19-30.98,25.23-9.85,10.61-17.86,28.14-19.43,42.61,6.95,87.64-9.29,189.39,0,275.28,4.8,44.35,42.31,64.77,83.22,67.98,126.5,9.92,265.83-7.7,393.65-.14,99.69,20.39,50.34,152.38,62.03,224.86-179.57.1-359.33-.31-538.9,0,5.22-51.67-7.45-117.84.93-167.72,1.38-8.23,5.64-17.49,10.67-24.22l38.78-32.88c-50.76-3.84-109.78,6.76-158.94-3.92-35.75-7.77-56.15-32.6-61.03-68.85-8-59.41-5.46-189.04-1.18-251.18,2.61-37.85,19.53-78.56,62.21-83.18,47.06-5.09,104.15-2.87,151.2-3.88,2.58-.06,5.17.05,7.75,0Z"/>
  <path class="cls-15" d="M935.67,1286.03c30.31,9.86,53.47,28.35,61.79,60.33-6.29,90.55,9.17,194,.43,282.98-3.49,35.55-30.03,57.12-62.23,67.65-127.83-7.56-267.15,10.06-393.65.14-40.92-3.21-78.43-23.62-83.22-67.98-9.29-85.9,6.95-187.65,0-275.28,1.56-14.46,9.57-31.99,19.43-42.61,11.18-12.04,27.49-11.62,30.98-25.23,1.29-.03,2.59.02,3.88,0,140.7-2.63,281.86,1.96,422.59,0ZM625.52,1561.29c37.72.31,132.67,6.05,162.9-5.74,46.08-17.97,40.85-90.9-7.61-101.09-36.79-7.74-114.05-2.1-155.29-1.72-30.13.27-112.67-5.95-133.77,7.74-32.32,20.96-34.46,69.19-1.73,90.93,25.01,16.61,102.01,9.61,135.5,9.89Z"/>
  <path class="cls-14" d="M1742.08,1313.16c-17.9,151.09-36.13,302.51-54.28,453.6h-314.03c-18.41-152.4-37.64-304.85-54.28-457.48l422.59,3.88Z"/>
  <path class="cls-2" d="M939.55,878.95c23.24,4.15,54.21,36.6,57.92,60.33-5.59,89.98,8.26,190.35.39,279.06-3,33.88-29.05,61.4-62.19,67.69-140.73,1.96-281.88-2.63-422.59,0-23.4-10.12-50.17-33.88-53.94-60.43-8.49-59.84-1.08-163.94-.4-228.46.07-6.55-2.48-17.24,3.94-21.27,42.78,75.77,131.17,116,217.11,100.8,96.18-17.01,170.75-99.81,174.46-197.72,25.71,3.16,61.02-4.33,85.29,0Z"/>
  <path class="cls-9" d="M1742.08,1313.16l-422.59-3.88-3.88-3.88c-.35-66.17-19.25-134.46-23.22-199.7-.55-9.01-1.69-26.32.03-34.13.72-3.27,10.4-2.63,7.69-10.42,147.97-.71,296.07.68,444.09-.18,16.57-.68,28.76,8.04,28.99,25.28-8.13,75.73-22.19,151.62-31.11,226.9Z"/>
  <path class="cls-6" d="M621.64,204.36c19.32.16,38.83.18,58.15,0-5.68,45.96,17.17,127.64-25.84,158.31-53.02,37.8-94.36,36.69-142.48,97.89-79.14,100.65-40.35,187.44-52.66,298.2-4.24,38.16-29.42,69.77-27.14,120.19-25.42,3.29-61.47-4.5-85.29,0-34.28-14.77-53.61-38.38-57.67-76.09-6.26-58.18-5.1-190.97,8.4-246.51,30.38-125.02,128.64-165.22,229.61-223.99l1.88-128c30.82,1.2,62.17-.25,93.05,0Z"/>
  <path class="cls-6" d="M1315.61,1305.41l3.88,3.88c16.63,152.63,35.87,305.08,54.28,457.48h-166.71c-18.83-153.65-36.25-307.59-54.28-461.36h162.83Z"/>
  <path class="cls-8" d="M1517.21,456.36l-112.43,205.48c-27.43-12.19-54.94,7.71-43.5,37.68,3.07,8.04,24.73,34.57,31.87,43.73,5.14,70.55,45.29,123.25,106.12,155.77,5.43,2.9,12.25,1.57,10.19,10.94-141.83,48.66-283.58-85.18-246.21-228.77,46.95-110.59,110-214.26,165.97-320.54,14.71-10.56,26.29-10.28,39.73,2.47,20.73,19.66,34.76,68.28,48.26,93.24Z"/>
  <path class="cls-17" d="M431.67,878.95c1.32,29.01,16.62,71.42,31.02,96.92-6.42,4.03-3.88,14.71-3.94,21.27-.68,64.52-8.08,168.62.4,228.46,3.77,26.55,30.54,50.31,53.94,60.43-1.29.02-2.59-.03-3.88,0-2.58.05-5.17-.06-7.75,0-46.99-4.66-105.75,6.29-151.2,0-39.02-5.4-59.08-43.53-62.17-79.34-5.02-58.21-6.89-203.32,1.15-258.88,4.07-28.1,27.84-63.32,57.14-68.86,23.82-4.5,59.88,3.29,85.29,0Z"/>
  <path class="cls-9" d="M1687.8,1766.77c-6.17,51.41-10.28,103.54-15.51,155.08-92.98-.18-186.16.09-279.14,0-7.66-51.47-13.14-103.42-19.38-155.08h314.03Z"/>
  <path class="cls-5" d="M1300.11,1061.16c2.71,7.79-6.97,7.15-7.69,10.42-1.72,7.81-.58,25.12-.03,34.13,3.98,65.23,22.87,133.53,23.22,199.7h-162.83c-7.84-66.87-24.68-145.67-27.16-211.39-.67-17.75,1.24-30.45,21.14-33.06,42.11-5.52,108.11.42,153.34.2Z"/>
  <path class="cls-7" d="M350.25,1693.11c49.15,10.68,108.17.08,158.94,3.92l-38.78,32.88c-5.03,6.73-9.29,15.99-10.67,24.22-8.38,49.87,4.29,116.04-.93,167.72-56.8.1-113.79-.23-170.59,0,9.37-77.17-33.38-193.16,62.03-228.74Z"/>
  <path class="cls-13" d="M1618.02,638.57c52.56,103.84,1.49,233.63-108.55,271.39,2.06-9.37-4.76-8.03-10.19-10.94-60.83-32.52-100.98-85.22-106.12-155.77,6.53,8.38,49.26,57.68,54.34,60.02,17.15,7.91,29.32-2.15,40.72-13.42,37.83-37.39,81.04-100.64,116.07-143.78,4.86-5.99,13.27-6.87,13.73-7.5Z"/>
  <path class="cls-9" d="M761.21,204.36c-26.97,1.02-54.4-.25-81.42,0-19.32.18-38.83.16-58.15,0-1.77-7.86-6.93-12.54-7.95-21.14-2.5-21.09-2.75-84.33-.02-105.07,1.42-10.76,6.3-13.3,11.85-21.12,46.82-.33,112.71-5.23,157.09-.07,17.16,2,23.22,8.18,25.2,25.2,1.74,15.01,2.43,92.62-.87,103.95-6.08,20.84-29.74,17.64-45.72,18.25Z"/>
  <path class="cls-1" d="M1618.02,638.57c-.46.63-8.87,1.51-13.73,7.5-35.03,43.14-78.24,106.39-116.07,143.78-11.4,11.27-23.57,21.33-40.72,13.42-5.08-2.34-47.82-51.64-54.34-60.02-7.13-9.16-28.8-35.69-31.87-43.73-11.44-29.98,16.06-49.87,43.5-37.68l56.09,65.81c41.2-45.7,78.82-94.46,118.48-141.46,2.86-3.39,2.9-8.62,3.78-9.64,6.25-7.33,44.38-48.11,49.25-49.59,20.14-6.13,40.13,7.45,40.13,28.27,0,17.17-38.66,54.53-50.82,69.74-4.11,5.14-2.96,12.65-3.67,13.61Z"/>
  <path class="cls-5" d="M1373.77,1766.77c6.24,51.66,11.72,103.61,19.38,155.08-55.51-.06-111.2.03-166.71,0-5.23-51.79-13.06-103.45-19.38-155.08h166.71Z"/>
  <path class="cls-13" d="M1517.21,456.36c2.58,4.78,8.8,10.14,12.29,16.78,18.06,34.35,36.04,68.84,53.62,103.4-.88,1.03-.91,6.25-3.78,9.64-39.66,47-77.27,95.76-118.48,141.46l-56.09-65.81,112.43-205.48Z"/>
  <path class="cls-5" d="M625.52,57.03c-5.56,7.82-10.44,10.35-11.85,21.12-2.73,20.74-2.48,83.98.02,105.07,1.02,8.6,6.18,13.28,7.95,21.14-30.87-.25-62.23,1.2-93.05,0-13.43-.52-40.57,2.99-45.77-14.32-2.72-9.07-1.97-113.94,1.28-121.28,1.2-2.73,6.97-8.49,9.69-9.69,14.28-6.3,107.59-1.86,131.73-2.03Z"/>
  <path class="cls-9" d="M1590.88,6.63c4.31,2.2,10.14,1.1,18.39,6.77,63.2,43.43,48.98,151.32-22.26,175.45-1.16-11.99-16.88-14.47-25.34-23.13-47.87-49.03-34.85-133.43,29.21-159.09Z"/>
  <path class="cls-10" d="M1210.94,289.65c-45.86,41.29-48.16,91.1,0,131.82-84.85,38.96-143.81-84.04-64.79-128.76,21.71-12.29,42.24-13.37,64.79-3.06Z"/>
  <path class="cls-9" d="M1210.94,421.46c-48.16-40.72-45.86-90.53,0-131.82,56.92,26.04,55.98,106.11,0,131.82Z"/>
  <path class="cls-16" d="M501.45,1286.03c-47.05,1.01-104.15-1.21-151.2,3.88v-3.88c45.45,6.29,104.21-4.66,151.2,0Z"/>
  <path class="cls-20" d="M854.26,878.95c-3.71,97.91-78.28,180.71-174.46,197.72,2.34-10.54-5.64-7.18-11.37-9.75-53.26-23.9-95.16-53.97-119.94-109-2.22-4.94-8.38-13.36-.5-16.94,3.06,1.6,20.08,3.63,25.04,4.04,35.27,2.87,117.41,4.2,151-.51,44.37-6.23,44.21-56.28-3.53-61.68-34.68-3.92-116.15-3.58-151.21-.03-10.38,1.05-28.47,5.45-32.94,15.53-8.97-2.75-7.46-10.06-7.96-17.22-4.76-67.62,30.18-140.08,83.65-180.42,22.19-16.74,46.84-22.22,67.76-38.85,107.73,18.05,178.57,108.62,174.46,217.11ZM585.73,794.58c-33.79,6.01-33.55,49.8-3.97,56.4,16.29,3.63,105.21,3.39,122.99.58,32.21-5.09,30.33-50.18-.57-57.09-16.56-3.7-100.65-3.05-118.44.11Z"/>
  <path class="cls-3" d="M679.79,661.84c-20.92,16.63-45.57,22.11-67.76,38.85-53.47,40.34-88.41,112.8-83.65,180.42.5,7.16-1,14.47,7.96,17.22-6.63,14.94-2.74,35.12,11.63,42.65-7.88,3.58-1.72,12,.5,16.94,24.78,55.03,66.69,85.1,119.94,109,5.73,2.57,13.72-.79,11.37,9.75-85.94,15.2-174.33-25.03-217.11-100.8-14.4-25.5-29.7-67.92-31.02-96.92-2.29-50.42,22.9-82.02,27.14-120.19l52.45-54.16c50.84-40.43,105.14-53.38,168.53-42.76Z"/>
  <path class="cls-18" d="M625.52,1561.29c-18.06-29.34-44.05-44.44-22.73-82.82,6.59-11.86,21.1-13.52,22.73-25.73,41.24-.37,118.5-6.01,155.29,1.72,48.46,10.19,53.69,83.12,7.61,101.09-30.24,11.8-125.19,6.06-162.9,5.74Z"/>
  <path class="cls-11" d="M625.52,1452.73c-1.63,12.21-16.15,13.88-22.73,25.73-21.32,38.38,4.67,53.48,22.73,82.82-33.49-.28-110.49,6.73-135.5-9.89-32.73-21.74-30.59-69.97,1.73-90.93,21.1-13.69,103.64-7.46,133.77-7.74Z"/>
  <path class="cls-12" d="M547.98,940.98c-14.37-7.52-18.26-27.71-11.63-42.65,4.48-10.08,22.56-14.48,32.94-15.53,35.06-3.55,116.53-3.89,151.21.03,47.73,5.4,47.89,55.45,3.53,61.68-33.59,4.72-115.73,3.39-151,.51-4.97-.4-21.99-2.44-25.04-4.04Z"/>
  <path class="cls-10" d="M585.73,794.58c17.79-3.16,101.88-3.81,118.44-.11,30.91,6.91,32.78,52,.57,57.09-17.78,2.81-106.7,3.05-122.99-.58-29.58-6.6-29.82-50.39,3.97-56.4Z"/>
</svg>