<?xml version="1.0" encoding="UTF-8"?>
<svg id="Layer_1" data-name="Layer 1" xmlns="http://www.w3.org/2000/svg" viewBox="0 0 2000 2000">
  <defs>
    <style>
      .cls-1 {
        fill: #77e1f7;
      }

      .cls-2 {
        fill: #6c7f88;
      }

      .cls-3 {
        fill: #6e808a;
      }

      .cls-4 {
        fill: #6e818a;
      }

      .cls-5 {
        fill: #3f4f56;
      }

      .cls-6 {
        fill: #ebbc2c;
      }

      .cls-7 {
        fill: #425259;
      }

      .cls-8 {
        fill: #425158;
      }

      .cls-9 {
        fill: #71838d;
      }

      .cls-10 {
        fill: #798a93;
      }

      .cls-11 {
        fill: #e58f22;
      }

      .cls-12 {
        fill: #3f4e55;
      }

      .cls-13 {
        fill: #91a4ae;
      }

      .cls-14 {
        fill: #415057;
      }

      .cls-15 {
        fill: #fdfdfe;
      }

      .cls-16 {
        fill: #c4cccf;
      }

      .cls-17 {
        fill: #3caafe;
      }

      .cls-18 {
        fill: #c3cbce;
      }

      .cls-19 {
        fill: #6f818b;
      }

      .cls-20 {
        fill: #44535b;
      }

      .cls-21 {
        fill: #7a8a93;
      }

      .cls-22 {
        fill: #44535a;
      }
    </style>
  </defs>
  <path class="cls-17" d="M1565.32,130c20.99,5.62,43.02,7.28,64.23,12.48,144.6,35.44,267.47,158.18,304.24,302.41,5.64,22.14,7.61,44.99,13.26,67.04-2.18,29.84,2.96,63.5,0,92.81-21.44,211.99-217.52,374.87-424.54,371.22v-78.53c4.74,0,9.55.23,14.27,0,43.81-2.13,100.87-16.24,140.34-35.58,3.15-1.55,2.03-7.06,2.36-7.25,12.91-7.19,8.84-1.98,24.97-14.28.64-.49,8.06-.26,12.58-3.31,40.1-27.08,68.82-59.83,94.45-100.2,6.97-10.99,8.37-13.52,14.27-24.99,27.69-53.84,35.93-81.47,39.24-142.78.72-13.24.68-15.28,0-28.56-3.17-61.65-10.93-92.12-39.24-146.35-6.66-12.76-10.57-15.59-14.27-21.42-37.93-59.72-48.76-68.38-107.03-107.08-6.83-4.54-7.84-7.28-21.41-14.28-55.64-28.68-83.04-36.18-146.27-39.26-1.49-.07-6.44-3.57-14.27-3.57v-78.53h42.81Z"/>
  <path class="cls-1" d="M1522.51,130v78.53c-7.88,0-12.67,3.48-14.27,3.57-63.04,3.46-88.28,10.97-142.7,39.26-11.01,5.72-14.55,7.55-24.97,14.28-58.28,37.64-67.25,50.79-103.46,107.08-4.42,6.87-7.23,8.26-14.27,21.42-26.65,49.79-40.56,87.71-42.81,146.35-.36,9.34-.47,19.23,0,28.56,2.84,56.71,16.52,94.58,42.81,142.78,8.05,14.76,6.72,11.06,14.27,21.42.69.95.36,10.02,4.05,15.5,22.14,32.85,54.69,65.42,87.49,87.54,5.47,3.69,14.54,3.35,15.49,4.05,10.35,7.55,6.29,6.14,21.41,14.28,48.08,25.88,85.96,40.08,142.7,42.83,4.72.23,9.53,0,14.27,0v78.53c-259.62-4.58-441.46-210.24-420.92-469.32,15.15-191.01,189.6-358.38,378.11-376.63h42.81Z"/>
  <path class="cls-11" d="M755.48,1061.62c.63,0,5.53-3.8,12.06-3.83,155.33-.82,310.73,1.17,466.01.24l1.82,28.63c228.99-105.98,394.14,98.07,257.92,308.02-58.1,89.54-228.92,224.41-331.26,253.92-9.97,2.87-30.48,2.86-31.95,3.57-3.97,1.95-49.25,54.69-60.6,64.49-45.88,39.57-98.5,65.13-157.02,80.26-52.27.16-104.71-.2-156.97,0v-735.3ZM1234.12,1187.12c-3.12,116.27,11.72,235.73-34.52,345.59,35.26-19.69,69.38-41.65,101.35-66.33,74.16-57.26,196.51-174.38,138.81-277.35-41.98-74.92-148.02-34.77-205.64-1.91Z"/>
  <path class="cls-6" d="M755.48,1061.62v735.3c-45.13.17-90.44-.26-135.57,0-138.51-13.68-249.86-130-302.74-252.15-66.06-152.59-31.16-321.18-39.77-483.17,159.3-.64,318.78.93,478.08.02Z"/>
  <path class="cls-13" d="M912.45,1796.93c159.3-.49,318.78.38,478.07-.01.42,86.75-73.69,147.96-155.26,157.01-159.92.09-319.91.08-479.78.06v-157.06c52.27-.2,104.71.16,156.97,0Z"/>
  <path class="cls-18" d="M755.48,1796.93v157.06l-476.22-.06c-80.9-8.37-157.61-67.15-158.83-153.44,162.41-.99,324.96,1.25,487.42.27,6.53-.04,11.43-3.83,12.06-3.83,45.13-.26,90.44.17,135.57,0Z"/>
  <path class="cls-16" d="M724.63,949.71c-4.85-4.44-14.66-19.78-18.4-26.21-66.28-113.98,46.27-165.04,34.59-266.62-2.41-21-29.21-61.91.43-75.27,50.24-22.64,63.07,74.97,60.54,106.96-5.21,65.69-65.69,122.38-51.87,187.65,5.41,25.54,39.24,42.56,19.88,69.48-11.13,15.47-31.34,16.68-45.17,4.01Z"/>
  <path class="cls-16" d="M540.42,949.97c-36.16,36.14-77.78-46.43-81.08-75.72-9.91-88.1,63.65-136.06,53.14-220.93-2.76-22.32-26.95-50.97-3.09-68.13,54.25-39.01,67.35,78.38,64.1,110.53-6.23,61.63-64.66,114.75-51.91,176.93,5.24,25.52,43.26,52.9,18.83,77.32Z"/>
  <path class="cls-16" d="M972.04,580.51c32.7-9.74,42.85,20.02,50.01,44.86,11.16,38.7,10.12,65.14-1.57,103.52-14.95,49.11-60.26,96.92-41.93,150.59,6.83,19.99,46.71,60.21,7.9,75.91-42.65,17.26-73.23-66.01-74.2-98.89-2.06-69.57,64.66-125.49,56.88-196.05-2.35-21.29-31.2-69.78,2.91-79.93Z"/>
  <path class="cls-15" d="M1508.24,212.1c2.05,15.52-8.18,48.31,14.27,49.97,2.8.21,5.6.2,8.35-.47l5.43-5.39.5-44.11c63.23,3.09,90.64,10.58,146.27,39.26-11.67,14.71-38.42,47.16-5.9,52.76,11.91-1.11,24.96-26.96,27.3-38.48,58.26,38.71,69.1,47.37,107.03,107.08-11.51,2.34-37.36,15.41-38.46,27.32,4.42,31.64,38.87,5.42,52.73-5.9,28.32,54.23,36.07,84.69,39.24,146.35l-44.08.51c-22.11,32.6,20.78,29.2,44.08,28.04-3.32,61.31-11.56,88.93-39.24,142.78-55.58-43.36-78.05-1.45-14.27,24.99-25.62,40.38-54.34,73.13-94.45,100.2-4.52,3.05-11.94,2.82-12.58,3.31-5.37-13.36-17.76-43.04-35.67-34-18.61,14.81,5.61,31.82,10.7,48.28-.33.19.79,5.7-2.36,7.25-39.47,19.34-96.53,33.45-140.34,35.58-2.02-13.91,5.92-44.54-7.37-52.04-4.69-2.64-6.21,1.97-6.9,2.06-2.94.4-7.14-1.31-9.85.65l-4.42,49.32c-56.75-2.76-94.63-16.95-142.7-42.83,41.51-49.24-1.25-77.61-21.41-14.28-.95-.69-10.02-.36-15.49-4.05-32.8-22.12-65.35-54.69-87.49-87.54-3.69-5.48-3.35-14.55-4.05-15.5,63.3-20.17,34.95-62.94-14.27-21.42-26.29-48.2-39.98-86.07-42.81-142.78,69.25,8.44,73.47-38.71,0-28.56,2.25-58.64,16.16-96.56,42.81-146.35,8.81,7.1,29.79,23.78,40.25,20.94,27.04-19.05-8.28-34.51-25.98-42.36,36.21-56.29,45.18-69.44,103.46-107.08,25.51,60.14,64.98,39.32,24.97-14.28,54.43-28.3,79.67-35.8,142.7-39.26ZM1522.51,308.47c-11.04.02-13.27,10.33-14.34,19.57-6.48,56.04,4.84,124.14.22,181.52-46.89,19.34-39.52,87.35,14.12,88.04,17.55.22,21.67-6.18,30.54-7.16,17.74-1.97,92.3,57.38,118.39,63.45,13.15,3.06,20.18-.29,18.9-15.23-.64-7.47-10.96-11.58-16.93-15.35-33.37-21.08-69.86-38.5-103.96-58.38,3.93-30.42-10.5-42.07-32.09-58.93l-3.87-192.52c-2.92-3.3-6.57-5.01-10.98-5Z"/>
  <path class="cls-22" d="M1683.05,251.36c13.57,6.99,14.57,9.74,21.41,14.28-2.34,11.52-15.4,37.37-27.3,38.48-32.52-5.6-5.77-38.05,5.9-52.76Z"/>
  <path class="cls-20" d="M1865,540.49c.68,13.27.72,15.31,0,28.56-23.3,1.16-66.19,4.56-44.08-28.04l44.08-.51Z"/>
  <path class="cls-22" d="M1811.48,372.72c3.7,5.82,7.61,8.66,14.27,21.42-13.87,11.32-48.32,37.54-52.73,5.9,1.1-11.91,26.96-24.98,38.46-27.32Z"/>
  <path class="cls-8" d="M1825.76,711.82c-5.9,11.47-7.3,14-14.27,24.99-63.78-26.44-41.31-68.35,14.27-24.99Z"/>
  <path class="cls-14" d="M1704.46,840.32c-16.13,12.3-12.06,7.08-24.97,14.28-5.09-16.46-29.31-33.47-10.7-48.28,17.91-9.04,30.3,20.64,35.67,34Z"/>
  <path class="cls-10" d="M1522.51,208.53c7.83,0,12.78,3.5,14.27,3.57l-14.25-.02-.02,49.99c-22.45-1.66-12.22-34.45-14.27-49.97,1.61-.09,6.39-3.57,14.27-3.57Z"/>
  <path class="cls-5" d="M1536.78,897.43c-4.72.23-9.53,0-14.27,0v-49.97c.7-.09,2.22-4.71,6.9-2.06,13.29,7.49,5.34,38.13,7.37,52.04Z"/>
  <path class="cls-2" d="M1180.02,569.04c-.47-9.33-.36-19.22,0-28.56,73.47-10.16,69.25,37,0,28.56Z"/>
  <path class="cls-19" d="M1237.1,372.72c17.7,7.85,53.02,23.31,25.98,42.36-10.46,2.84-31.44-13.84-40.25-20.94,7.04-13.16,9.85-14.54,14.27-21.42Z"/>
  <path class="cls-19" d="M1237.1,733.24c-7.55-10.36-6.22-6.66-14.27-21.42,49.22-41.53,77.57,1.25,14.27,21.42Z"/>
  <path class="cls-4" d="M1365.54,854.6c-15.12-8.14-11.06-6.72-21.41-14.28,20.16-63.33,62.91-34.97,21.41,14.28Z"/>
  <path class="cls-3" d="M1365.54,251.36c40.01,53.6.54,74.42-24.97,14.28,10.42-6.73,13.97-8.56,24.97-14.28Z"/>
  <path class="cls-21" d="M1522.51,847.46v49.97c-4.74,0-9.55.23-14.27,0l4.42-49.32c2.71-1.96,6.92-.25,9.85-.65Z"/>
  <path class="cls-12" d="M1522.51,308.47c4.41,0,8.06,1.71,10.98,5l3.87,192.52c21.59,16.85,36.03,28.51,32.09,58.93,34.11,19.88,70.59,37.29,103.96,58.38,5.97,3.77,16.29,7.89,16.93,15.35,1.27,14.94-5.75,18.29-18.9,15.23-26.1-6.07-100.66-65.42-118.39-63.45-8.88.98-13,7.39-30.54,7.16v-289.12Z"/>
  <path class="cls-9" d="M1522.51,308.47v289.12c-53.64-.69-61.01-68.7-14.12-88.04,4.62-57.38-6.7-125.47-.22-181.52,1.07-9.23,3.3-19.55,14.34-19.57Z"/>
  <path class="cls-7" d="M1536.78,212.1l-.5,44.11-5.43,5.39c-2.75.67-5.54.68-8.35.47l.02-49.99,14.25.02Z"/>
</svg>